# xmcd
#
# Track frame offsets: 
#        150
#        14593
#        27137
#        37378
#        52967
#        66630
#        81883
#        91400
#        105286
#        117450
#        131942
#
# Disc length: 1965 seconds
#
# Revision: 4
# Processed by: cddbd v1.5.2PL0 Copyright (c) Steve Scherf et al.
# Submitted via: ExactAudioCopyFreeDBPlugin 1.0
#
DISCID=9b07ab0b
DTITLE=Pentatonix / That's Christmas To Me
DYEAR=2014
DGENRE=Christmas
TTITLE0=Hark! The Herald Angels Sing
TTITLE1=White Winter Hymnal
TTITLE2=Sleigh Ride
TTITLE3=Pentatonix (feat. Tori Kelly) / Winter Wonderland / Don't Worr
TTITLE3=y Be Happy
TTITLE4=That's Christmas To Me
TTITLE5=Mary, Did You Know?
TTITLE6=Dance Of The Sugar Plum Fairy
TTITLE7=It's The Most Wonderful Time Of The Year
TTITLE8=Santa Claus Is Coming To Town
TTITLE9=Silent Night
TTITLE10=Let It Go
EXTD=
EXTT0=
EXTT1=
EXTT2=
EXTT3=
EXTT4=
EXTT5=
EXTT6=
EXTT7=
EXTT8=
EXTT9=
EXTT10=
PLAYORDER=
.
